<?xml version="1.0" encoding="UTF-8" standalone="no"?>
<!DOCTYPE svg PUBLIC "-//W3C//DTD SVG 1.1//EN" "http://www.w3.org/Graphics/SVG/1.1/DTD/svg11.dtd">
<svg width="100%" height="100%" viewBox="0 0 900 900" version="1.1" xmlns="http://www.w3.org/2000/svg" xmlns:xlink="http://www.w3.org/1999/xlink" xml:space="preserve" xmlns:serif="http://www.serif.com/" style="fill-rule:evenodd;clip-rule:evenodd;stroke-linejoin:round;stroke-miterlimit:2;">
    <g id="SRC">
        <path d="M450,57.675C670.705,57.675 849.889,233.47 849.889,450C849.889,666.53 670.705,842.325 450,842.325C229.295,842.325 50.111,666.53 50.111,450C50.111,233.47 229.295,57.675 450,57.675ZM450,190.362C395.974,190.362 352.111,233.395 352.111,286.4C352.111,353.57 450,396.91 450,396.91C450,396.91 547.889,353.973 547.889,286.4C547.889,233.395 504.026,190.362 450,190.362ZM450,258.131C466.141,258.131 479.245,270.988 479.245,286.823C479.245,302.659 466.141,315.515 450,315.515C433.859,315.515 420.755,302.659 420.755,286.823C420.755,270.988 433.859,258.131 450,258.131ZM450,503.011L716,657.159L746.452,605.413L509.873,468.315L733.764,338.569L703.312,286.823L450,433.618L196.688,286.823L166.236,338.569L390.127,468.315L153.548,605.413L184,657.159L450,503.011ZM450,590.25C431.18,590.25 415.901,605.241 415.901,623.705C415.901,642.168 431.18,657.159 450,657.159C468.82,657.159 484.099,642.168 484.099,623.705C484.099,605.241 468.82,590.25 450,590.25Z" style="fill:white;"/>
    </g>
</svg>
